<svg id="svg" version="1.1" xmlns="http://www.w3.org/2000/svg" xmlns:xlink="http://www.w3.org/1999/xlink" width="400" height="400" viewBox="0, 0, 400,400"><g id="svgg"><path id="path0" d="M199.526 36.300 C 198.305 36.569,194.750 43.096,192.494 49.210 C 192.045 50.426,190.866 53.228,189.874 55.436 C 188.881 57.645,187.442 61.060,186.676 63.026 C 185.910 64.992,184.710 67.860,184.009 69.400 C 183.309 70.940,182.104 73.814,181.331 75.787 C 180.558 77.760,179.509 80.196,179.000 81.200 C 178.491 82.204,177.409 84.730,176.595 86.813 C 175.782 88.896,174.145 92.795,172.958 95.477 C 171.771 98.159,170.800 100.448,170.800 100.564 C 170.800 100.679,169.480 103.885,167.867 107.687 C 161.779 122.040,162.121 122.931,179.800 138.736 C 191.200 148.928,192.961 150.760,194.747 154.284 C 199.595 163.854,182.334 160.667,163.982 148.603 C 152.164 140.835,152.855 140.491,143.504 158.800 C 140.526 164.630,133.819 177.770,128.598 188.000 C 123.378 198.230,116.581 211.550,113.493 217.600 C 110.405 223.650,106.311 231.480,104.394 235.000 C 98.676 245.501,96.433 249.596,94.204 253.600 C 93.041 255.690,90.335 260.640,88.191 264.600 C 86.047 268.560,84.156 271.980,83.990 272.200 C 83.823 272.420,82.433 274.940,80.900 277.800 C 77.636 283.890,68.726 300.275,67.416 302.596 C 65.880 305.316,59.929 316.157,54.787 325.600 C 52.092 330.550,47.188 339.542,43.890 345.583 C 30.504 370.095,30.261 369.999,62.600 353.005 C 79.931 343.899,95.970 336.112,103.600 333.102 C 119.748 326.730,124.600 324.878,126.400 324.399 C 127.390 324.135,131.080 323.030,134.600 321.943 C 138.120 320.855,143.160 319.514,145.800 318.962 C 156.230 316.783,157.468 314.840,155.841 303.216 C 155.051 297.569,155.045 294.656,155.812 289.000 C 156.141 286.580,156.772 281.540,157.216 277.800 C 160.664 248.739,179.596 226.600,201.000 226.600 L 205.800 226.600 210.571 228.515 C 219.898 232.257,224.077 235.586,230.922 244.725 C 241.596 258.976,247.182 282.910,246.024 309.433 C 245.740 315.928,246.568 316.777,255.352 319.009 C 258.335 319.767,262.717 321.004,265.088 321.757 C 267.460 322.509,271.290 323.699,273.600 324.401 C 275.910 325.102,279.060 326.216,280.600 326.875 C 282.140 327.534,285.290 328.764,287.600 329.608 C 292.545 331.414,301.676 335.061,306.200 337.035 C 307.960 337.803,319.930 343.893,332.800 350.567 C 370.406 370.069,369.889 370.123,357.689 348.000 C 357.143 347.010,355.253 343.500,353.490 340.200 C 349.141 332.062,346.453 328.079,343.492 325.386 C 339.525 321.777,323.918 309.648,319.577 306.800 C 304.063 296.622,302.161 295.278,298.813 292.126 C 290.606 284.400,295.695 279.623,308.200 283.315 C 321.226 287.160,323.217 287.176,322.621 283.431 C 322.405 282.074,315.262 267.596,308.496 254.800 C 307.623 253.150,305.061 248.200,302.802 243.800 C 300.544 239.400,297.754 234.000,296.604 231.800 C 294.470 227.719,290.135 219.338,284.603 208.600 C 278.869 197.469,264.944 170.588,261.603 164.200 C 260.337 161.780,257.631 156.560,255.589 152.600 C 253.548 148.640,249.634 141.080,246.891 135.800 C 241.916 126.220,238.803 119.718,235.210 111.400 C 234.165 108.980,231.958 103.940,230.305 100.200 C 228.653 96.460,226.361 91.240,225.213 88.600 C 220.964 78.831,215.837 67.138,208.770 51.100 C 207.873 49.065,206.684 46.320,206.128 45.000 C 203.530 38.830,201.312 35.907,199.526 36.300 " stroke="none" fill="#1494d4" fill-rule="evenodd"></path><path id="path1" d="M0.000 200.000 L 0.000 400.000 200.000 400.000 L 400.000 400.000 400.000 200.000 L 400.000 0.000 200.000 0.000 L 0.000 0.000 0.000 200.000 M204.699 20.921 C 206.412 22.080,208.136 24.521,209.764 28.092 C 210.492 29.691,211.763 32.440,212.588 34.200 C 213.412 35.960,214.590 38.668,215.206 40.217 C 215.822 41.767,216.892 44.197,217.583 45.617 C 218.275 47.038,219.713 50.270,220.780 52.800 C 221.846 55.330,224.379 61.180,226.408 65.800 C 228.438 70.420,231.045 76.360,232.203 79.000 C 233.361 81.640,235.696 86.950,237.392 90.800 C 239.088 94.650,241.254 99.630,242.206 101.868 C 248.048 115.602,250.072 119.731,265.599 149.600 C 268.401 154.990,272.722 163.360,275.203 168.200 C 277.683 173.040,280.563 178.620,281.603 180.600 C 284.674 186.449,293.990 204.410,298.199 212.600 C 300.348 216.780,303.047 222.000,304.198 224.200 C 307.324 230.177,312.095 239.405,313.813 242.800 C 314.649 244.450,317.620 250.210,320.415 255.600 C 323.211 260.990,327.926 270.080,330.893 275.800 C 339.736 292.848,340.498 295.966,337.064 301.021 C 334.865 304.256,335.865 305.878,344.248 312.674 C 355.260 321.601,355.007 321.252,367.598 344.800 C 369.421 348.210,371.761 352.530,372.798 354.400 C 382.468 371.834,383.762 377.135,379.169 380.498 C 374.653 383.805,374.373 383.694,333.600 362.533 C 306.788 348.617,299.014 344.804,293.468 342.846 C 291.594 342.185,288.473 340.985,286.531 340.178 C 284.589 339.372,281.110 338.022,278.800 337.177 C 276.490 336.333,272.956 335.011,270.947 334.240 C 268.938 333.469,264.978 332.299,262.147 331.639 C 250.065 328.825,240.462 325.251,238.173 322.717 C 235.396 319.643,235.402 319.684,235.381 305.000 C 235.346 280.848,234.456 275.522,227.735 259.278 C 220.303 241.317,202.106 232.140,189.071 239.780 C 186.716 241.160,179.230 248.452,177.809 250.750 C 168.862 265.218,164.231 285.143,165.659 303.025 C 167.196 322.277,166.485 323.476,150.691 328.248 C 146.681 329.460,140.970 330.998,138.000 331.667 C 135.030 332.335,131.011 333.510,129.069 334.276 C 127.127 335.042,122.987 336.624,119.869 337.792 C 103.897 343.770,100.287 345.320,88.600 351.216 C 81.780 354.657,73.860 358.702,71.000 360.206 C 42.281 375.305,30.197 381.181,27.138 381.538 C 19.028 382.482,16.096 376.611,20.305 367.851 C 21.819 364.700,31.268 347.135,37.009 336.800 C 39.712 331.933,47.751 317.216,51.100 311.000 C 52.523 308.360,54.012 305.660,54.409 305.000 C 54.806 304.340,56.199 301.820,57.505 299.400 C 58.811 296.980,61.367 292.300,63.185 289.000 C 65.003 285.700,68.249 279.760,70.399 275.800 C 72.549 271.840,76.243 265.090,78.608 260.800 C 80.973 256.510,84.077 250.840,85.507 248.200 C 86.936 245.560,90.755 238.540,93.994 232.600 C 97.233 226.660,102.905 215.860,106.599 208.600 C 110.293 201.340,115.336 191.440,117.807 186.600 C 120.278 181.760,126.663 169.250,131.997 158.800 C 144.278 134.741,144.146 134.939,150.363 131.300 C 153.792 129.293,153.867 129.135,153.283 125.102 C 152.461 119.414,152.788 116.664,154.818 112.200 C 155.218 111.320,156.373 108.553,157.385 106.051 C 158.397 103.549,159.607 100.669,160.075 99.651 C 160.543 98.633,161.780 95.730,162.823 93.200 C 166.598 84.049,169.261 77.705,171.385 72.800 C 174.641 65.285,176.781 60.219,184.991 40.600 C 191.537 24.956,192.868 22.485,195.768 20.584 C 198.057 19.084,202.215 19.241,204.699 20.921 " stroke="none" fill="#fbfbfc" fill-rule="evenodd"></path><path id="path2" d="M197.554 29.100 C 196.107 30.317,192.820 36.871,189.077 46.000 C 187.859 48.970,185.299 55.090,183.387 59.600 C 181.474 64.110,179.051 69.870,178.001 72.400 C 176.951 74.930,175.171 79.120,174.046 81.711 C 172.921 84.302,172.000 86.528,172.000 86.658 C 172.000 86.788,171.269 88.517,170.376 90.501 C 168.845 93.901,166.450 99.606,161.960 110.543 C 157.379 121.704,157.775 123.049,169.179 135.090 C 177.349 143.716,180.000 146.934,180.000 148.223 C 180.000 150.848,174.159 149.166,166.200 144.249 C 155.316 137.525,153.425 137.008,149.801 139.772 C 147.232 141.731,147.598 141.052,121.599 192.200 C 106.073 222.744,104.814 225.141,92.093 248.400 C 88.905 254.230,82.655 265.660,78.205 273.800 C 73.755 281.940,68.531 291.480,66.596 295.000 C 62.145 303.097,59.334 308.241,57.414 311.800 C 55.736 314.911,52.900 320.087,48.100 328.800 C 28.996 363.479,27.498 366.448,27.441 369.777 C 27.343 375.433,31.260 374.336,54.200 362.277 C 65.561 356.305,95.202 341.206,97.400 340.271 C 103.930 337.494,125.234 329.326,129.200 328.079 C 132.897 326.917,145.444 323.429,150.359 322.198 C 160.462 319.667,161.524 317.425,159.991 301.861 C 159.424 296.102,159.596 292.055,160.823 282.318 C 166.895 234.117,202.915 214.697,226.943 246.670 C 237.132 260.229,241.400 277.158,241.400 304.015 C 241.400 320.983,239.777 319.227,261.000 325.212 C 271.195 328.087,282.253 331.915,290.600 335.458 C 291.920 336.018,295.070 337.254,297.600 338.205 C 302.924 340.207,309.428 343.283,319.939 348.772 C 324.043 350.915,330.640 354.343,334.600 356.390 C 338.560 358.436,346.570 362.585,352.400 365.608 C 369.171 374.306,372.867 375.159,372.867 370.333 C 372.867 367.168,370.630 362.613,354.873 333.685 C 351.119 326.795,348.050 323.233,340.984 317.568 C 327.793 306.993,326.859 306.274,315.461 297.896 C 306.735 291.482,308.619 288.752,319.362 292.241 C 332.700 296.572,333.495 293.717,324.045 275.428 C 321.877 271.233,318.165 264.020,315.797 259.400 C 313.429 254.780,309.196 246.590,306.390 241.200 C 303.584 235.810,294.583 218.440,286.386 202.600 C 278.189 186.760,269.242 169.480,266.502 164.200 C 246.249 125.162,242.425 117.492,238.088 107.200 C 237.207 105.110,235.010 100.070,233.205 96.000 C 231.400 91.930,228.879 86.170,227.604 83.200 C 226.328 80.230,223.893 74.650,222.192 70.800 C 215.928 56.619,213.054 50.063,210.596 44.344 C 203.927 28.832,201.393 25.870,197.554 29.100 M203.512 39.743 C 204.395 41.314,205.573 43.680,206.128 45.000 C 206.684 46.320,207.873 49.065,208.770 51.100 C 215.837 67.138,220.964 78.831,225.213 88.600 C 226.361 91.240,228.653 96.460,230.305 100.200 C 231.958 103.940,234.165 108.980,235.210 111.400 C 238.803 119.718,241.916 126.220,246.891 135.800 C 249.634 141.080,253.548 148.640,255.589 152.600 C 257.631 156.560,260.337 161.780,261.603 164.200 C 264.944 170.588,278.869 197.469,284.603 208.600 C 290.135 219.338,294.470 227.719,296.604 231.800 C 297.754 234.000,300.544 239.400,302.802 243.800 C 305.061 248.200,307.623 253.150,308.496 254.800 C 315.262 267.596,322.405 282.074,322.621 283.431 C 323.217 287.176,321.226 287.160,308.200 283.315 C 295.695 279.623,290.606 284.400,298.813 292.126 C 302.161 295.278,304.063 296.622,319.577 306.800 C 323.918 309.648,339.525 321.777,343.492 325.386 C 346.453 328.079,349.141 332.062,353.490 340.200 C 355.253 343.500,357.143 347.010,357.689 348.000 C 369.889 370.123,370.406 370.069,332.800 350.567 C 319.930 343.893,307.960 337.803,306.200 337.035 C 301.676 335.061,292.545 331.414,287.600 329.608 C 285.290 328.764,282.140 327.534,280.600 326.875 C 279.060 326.216,275.910 325.102,273.600 324.401 C 271.290 323.699,267.460 322.509,265.088 321.757 C 262.717 321.004,258.335 319.767,255.352 319.009 C 246.568 316.777,245.740 315.928,246.024 309.433 C 247.003 287.012,243.191 266.628,235.083 250.925 C 233.348 247.564,228.120 240.886,224.016 236.790 C 219.799 232.580,218.105 231.538,210.571 228.515 L 205.800 226.600 201.000 226.600 C 179.596 226.600,160.664 248.739,157.216 277.800 C 156.772 281.540,156.141 286.580,155.812 289.000 C 155.045 294.656,155.051 297.569,155.841 303.216 C 157.468 314.840,156.230 316.783,145.800 318.962 C 143.160 319.514,138.120 320.855,134.600 321.943 C 131.080 323.030,127.390 324.135,126.400 324.399 C 124.600 324.878,119.748 326.730,103.600 333.102 C 95.970 336.112,79.931 343.899,62.600 353.005 C 30.261 369.999,30.504 370.095,43.890 345.583 C 47.188 339.542,52.092 330.550,54.787 325.600 C 59.929 316.157,65.880 305.316,67.416 302.596 C 68.726 300.275,77.636 283.890,80.900 277.800 C 82.433 274.940,83.823 272.420,83.990 272.200 C 84.156 271.980,86.047 268.560,88.191 264.600 C 90.335 260.640,93.041 255.690,94.204 253.600 C 96.433 249.596,98.676 245.501,104.394 235.000 C 106.311 231.480,110.405 223.650,113.493 217.600 C 116.581 211.550,123.378 198.230,128.598 188.000 C 153.132 139.923,150.711 144.150,153.966 143.714 C 155.912 143.453,156.823 143.897,163.982 148.603 C 182.334 160.667,199.595 163.854,194.747 154.284 C 192.961 150.760,191.200 148.928,179.800 138.736 C 162.121 122.931,161.779 122.040,167.867 107.687 C 169.480 103.885,170.800 100.679,170.800 100.564 C 170.800 100.448,171.771 98.159,172.958 95.477 C 174.145 92.795,175.782 88.896,176.595 86.813 C 177.409 84.730,178.491 82.204,179.000 81.200 C 179.509 80.196,180.558 77.760,181.331 75.787 C 182.104 73.814,183.309 70.940,184.009 69.400 C 184.710 67.860,185.910 64.992,186.676 63.026 C 187.442 61.060,188.881 57.645,189.874 55.436 C 190.866 53.228,192.045 50.426,192.494 49.210 C 193.727 45.868,196.303 40.431,197.652 38.324 C 199.667 35.176,201.147 35.535,203.512 39.743 " stroke="none" fill="#62b5e1" fill-rule="evenodd"></path><path id="path3" d="M197.400 24.748 C 194.411 26.605,192.980 29.509,181.994 56.000 C 180.945 58.530,179.276 62.490,178.286 64.800 C 177.295 67.110,175.007 72.510,173.202 76.800 C 166.124 93.620,164.595 97.240,161.793 103.800 C 154.862 120.024,154.746 122.578,160.565 130.699 C 165.410 137.460,165.332 138.093,159.892 136.186 C 149.324 132.482,148.784 133.010,134.561 160.887 C 129.367 171.069,122.906 183.720,120.205 189.000 C 117.504 194.280,112.547 204.000,109.191 210.600 C 103.065 222.644,100.653 227.174,89.912 246.800 C 86.722 252.630,82.445 260.460,80.408 264.200 C 78.372 267.940,75.313 273.520,73.612 276.600 C 71.911 279.680,69.299 284.450,67.809 287.200 C 66.318 289.950,64.152 293.910,62.996 296.000 C 60.616 300.300,56.796 307.274,48.096 323.200 C 44.791 329.250,38.448 340.850,34.000 348.979 C 22.423 370.137,21.201 373.362,23.726 376.084 C 26.914 379.520,26.658 379.630,80.334 351.829 C 98.560 342.389,98.858 342.257,118.200 335.000 C 121.280 333.844,125.189 332.341,126.888 331.658 C 128.586 330.976,132.186 329.865,134.888 329.190 C 139.236 328.102,147.441 325.841,155.209 323.589 C 162.687 321.421,163.529 318.787,162.639 300.369 C 161.114 268.842,174.901 239.623,193.586 234.780 C 219.454 228.074,240.394 260.283,238.590 304.000 C 237.841 322.152,237.814 322.126,264.626 328.999 C 269.563 330.265,276.011 332.570,289.800 338.000 C 293.100 339.300,297.240 340.922,299.000 341.605 C 302.521 342.971,319.347 351.463,345.800 365.223 C 369.671 377.640,372.011 378.572,375.200 376.924 C 379.004 374.958,377.801 370.079,370.039 356.000 C 368.766 353.690,366.225 349.010,364.394 345.600 C 352.065 322.643,352.835 323.645,338.937 312.468 C 331.082 306.152,327.264 302.068,327.767 300.520 C 327.896 300.124,329.090 299.294,330.421 298.675 C 333.756 297.126,334.506 295.872,334.275 292.241 C 334.059 288.868,333.002 286.710,306.821 236.200 C 276.839 178.358,251.279 128.936,248.895 124.200 C 246.463 119.367,243.030 111.871,239.187 103.000 C 236.799 97.488,232.934 88.631,228.888 79.400 C 227.346 75.880,224.783 70.030,223.194 66.400 C 221.605 62.770,219.082 57.010,217.589 53.600 C 216.096 50.190,213.878 45.119,212.661 42.332 C 204.901 24.560,202.380 21.655,197.400 24.748 M202.227 28.817 C 203.764 29.767,206.554 34.944,210.596 44.344 C 213.054 50.063,215.928 56.619,222.192 70.800 C 223.893 74.650,226.328 80.230,227.604 83.200 C 228.879 86.170,231.400 91.930,233.205 96.000 C 235.010 100.070,237.207 105.110,238.088 107.200 C 242.425 117.492,246.249 125.162,266.502 164.200 C 269.242 169.480,278.189 186.760,286.386 202.600 C 294.583 218.440,303.584 235.810,306.390 241.200 C 309.196 246.590,313.429 254.780,315.797 259.400 C 318.165 264.020,321.877 271.233,324.045 275.428 C 333.495 293.717,332.700 296.572,319.362 292.241 C 308.619 288.752,306.735 291.482,315.461 297.896 C 326.859 306.274,327.793 306.993,340.984 317.568 C 348.050 323.233,351.119 326.795,354.873 333.685 C 370.630 362.613,372.867 367.168,372.867 370.333 C 372.867 375.159,369.171 374.306,352.400 365.608 C 346.570 362.585,338.560 358.436,334.600 356.390 C 330.640 354.343,324.043 350.915,319.939 348.772 C 309.428 343.283,302.924 340.207,297.600 338.205 C 295.070 337.254,291.920 336.018,290.600 335.458 C 282.253 331.915,271.195 328.087,261.000 325.212 C 247.176 321.314,245.278 320.665,243.869 319.359 C 241.342 317.016,241.400 317.375,241.400 304.015 C 241.400 283.766,240.075 274.968,235.085 262.087 C 215.715 212.085,168.034 225.075,160.823 282.318 C 159.596 292.055,159.424 296.102,159.991 301.861 C 161.524 317.425,160.462 319.667,150.359 322.198 C 145.444 323.429,132.897 326.917,129.200 328.079 C 125.234 329.326,103.930 337.494,97.400 340.271 C 95.202 341.206,65.561 356.305,54.200 362.277 C 31.260 374.336,27.343 375.433,27.441 369.777 C 27.498 366.448,28.996 363.479,48.100 328.800 C 52.900 320.087,55.736 314.911,57.414 311.800 C 59.334 308.241,62.145 303.097,66.596 295.000 C 68.531 291.480,73.755 281.940,78.205 273.800 C 82.655 265.660,88.905 254.230,92.093 248.400 C 104.814 225.141,106.073 222.744,121.599 192.200 C 147.598 141.052,147.232 141.731,149.801 139.772 C 153.425 137.008,155.316 137.525,166.200 144.249 C 174.159 149.166,180.000 150.848,180.000 148.223 C 180.000 146.934,177.349 143.716,169.179 135.090 C 157.775 123.049,157.379 121.704,161.960 110.543 C 166.450 99.606,168.845 93.901,170.376 90.501 C 171.269 88.517,172.000 86.788,172.000 86.658 C 172.000 86.528,172.921 84.302,174.046 81.711 C 175.171 79.120,176.951 74.930,178.001 72.400 C 179.051 69.870,181.474 64.110,183.387 59.600 C 185.299 55.090,187.859 48.970,189.077 46.000 C 195.875 29.420,198.228 26.345,202.227 28.817 " stroke="none" fill="#a0d2ec" fill-rule="evenodd"></path><path id="path4" d="M198.448 19.665 C 193.830 20.485,192.620 22.367,184.991 40.600 C 176.781 60.219,174.641 65.285,171.385 72.800 C 169.261 77.705,166.598 84.049,162.823 93.200 C 161.780 95.730,160.543 98.633,160.075 99.651 C 159.607 100.669,158.397 103.549,157.385 106.051 C 156.373 108.553,155.218 111.320,154.818 112.200 C 152.788 116.664,152.461 119.414,153.283 125.102 C 153.867 129.135,153.792 129.293,150.363 131.300 C 144.146 134.939,144.278 134.741,131.997 158.800 C 126.663 169.250,120.278 181.760,117.807 186.600 C 115.336 191.440,110.293 201.340,106.599 208.600 C 102.905 215.860,97.233 226.660,93.994 232.600 C 90.755 238.540,86.936 245.560,85.507 248.200 C 84.077 250.840,80.973 256.510,78.608 260.800 C 76.243 265.090,72.549 271.840,70.399 275.800 C 68.249 279.760,65.003 285.700,63.185 289.000 C 61.367 292.300,58.811 296.980,57.505 299.400 C 56.199 301.820,54.806 304.340,54.409 305.000 C 54.012 305.660,52.523 308.360,51.100 311.000 C 47.751 317.216,39.712 331.933,37.009 336.800 C 17.771 371.434,16.355 374.914,19.714 379.322 C 23.674 384.518,27.389 383.134,71.000 360.206 C 73.860 358.702,81.780 354.657,88.600 351.216 C 100.287 345.320,103.897 343.770,119.869 337.792 C 122.987 336.624,127.127 335.042,129.069 334.276 C 131.011 333.510,135.030 332.335,138.000 331.667 C 140.970 330.998,146.681 329.460,150.691 328.248 C 166.485 323.476,167.196 322.277,165.659 303.025 C 164.414 287.439,167.561 270.886,174.363 257.241 C 181.691 242.542,192.072 235.422,203.561 237.216 C 212.488 238.611,223.246 248.429,227.735 259.278 C 234.456 275.522,235.346 280.848,235.381 305.000 C 235.408 323.643,235.336 323.530,250.200 328.271 C 253.940 329.464,259.316 330.980,262.147 331.639 C 264.978 332.299,268.938 333.469,270.947 334.240 C 272.956 335.011,276.490 336.333,278.800 337.177 C 281.110 338.022,284.589 339.372,286.531 340.178 C 288.473 340.985,291.594 342.185,293.468 342.846 C 299.014 344.804,306.788 348.617,333.600 362.533 C 374.373 383.694,374.653 383.805,379.169 380.498 C 383.762 377.135,382.468 371.834,372.798 354.400 C 371.761 352.530,369.421 348.210,367.598 344.800 C 355.007 321.252,355.260 321.601,344.248 312.674 C 335.865 305.878,334.865 304.256,337.064 301.021 C 340.498 295.966,339.736 292.848,330.893 275.800 C 327.926 270.080,323.211 260.990,320.415 255.600 C 317.620 250.210,314.649 244.450,313.813 242.800 C 312.095 239.405,307.324 230.177,304.198 224.200 C 303.047 222.000,300.348 216.780,298.199 212.600 C 293.990 204.410,284.674 186.449,281.603 180.600 C 280.563 178.620,277.683 173.040,275.203 168.200 C 272.722 163.360,268.401 154.990,265.599 149.600 C 250.072 119.731,248.048 115.602,242.206 101.868 C 241.254 99.630,239.088 94.650,237.392 90.800 C 235.696 86.950,233.361 81.640,232.203 79.000 C 231.045 76.360,228.438 70.420,226.408 65.800 C 224.379 61.180,221.846 55.330,220.780 52.800 C 219.713 50.270,218.275 47.038,217.583 45.617 C 216.892 44.197,215.822 41.767,215.206 40.217 C 214.590 38.668,213.412 35.960,212.588 34.200 C 211.763 32.440,210.492 29.691,209.764 28.092 C 206.679 21.325,203.296 18.805,198.448 19.665 M202.997 24.798 C 205.224 26.174,207.065 29.515,212.661 42.332 C 213.878 45.119,216.096 50.190,217.589 53.600 C 219.082 57.010,221.605 62.770,223.194 66.400 C 224.783 70.030,227.346 75.880,228.888 79.400 C 232.934 88.631,236.799 97.488,239.187 103.000 C 243.030 111.871,246.463 119.367,248.895 124.200 C 251.279 128.936,276.839 178.358,306.821 236.200 C 333.002 286.710,334.059 288.868,334.275 292.241 C 334.506 295.872,333.756 297.126,330.421 298.675 C 329.090 299.294,327.896 300.124,327.767 300.520 C 327.264 302.068,331.082 306.152,338.937 312.468 C 352.835 323.645,352.065 322.643,364.394 345.600 C 366.225 349.010,368.766 353.690,370.039 356.000 C 377.801 370.079,379.004 374.958,375.200 376.924 C 372.011 378.572,369.671 377.640,345.800 365.223 C 319.347 351.463,302.521 342.971,299.000 341.605 C 297.240 340.922,293.100 339.300,289.800 338.000 C 276.011 332.570,269.563 330.265,264.626 328.999 C 237.814 322.126,237.841 322.152,238.590 304.000 C 240.394 260.283,219.454 228.074,193.586 234.780 C 174.901 239.623,161.114 268.842,162.639 300.369 C 163.529 318.787,162.687 321.421,155.209 323.589 C 147.441 325.841,139.236 328.102,134.888 329.190 C 132.186 329.865,128.586 330.976,126.888 331.658 C 125.189 332.341,121.280 333.844,118.200 335.000 C 98.858 342.257,98.560 342.389,80.334 351.829 C 26.658 379.630,26.914 379.520,23.726 376.084 C 21.201 373.362,22.423 370.137,34.000 348.979 C 38.448 340.850,44.791 329.250,48.096 323.200 C 56.796 307.274,60.616 300.300,62.996 296.000 C 64.152 293.910,66.318 289.950,67.809 287.200 C 69.299 284.450,71.911 279.680,73.612 276.600 C 75.313 273.520,78.372 267.940,80.408 264.200 C 82.445 260.460,86.722 252.630,89.912 246.800 C 100.653 227.174,103.065 222.644,109.191 210.600 C 112.547 204.000,117.504 194.280,120.205 189.000 C 122.906 183.720,129.367 171.069,134.561 160.887 C 148.784 133.010,149.324 132.482,159.892 136.186 C 165.332 138.093,165.410 137.460,160.565 130.699 C 154.746 122.578,154.862 120.024,161.793 103.800 C 164.595 97.240,166.124 93.620,173.202 76.800 C 175.007 72.510,177.295 67.110,178.286 64.800 C 179.276 62.490,180.945 58.530,181.994 56.000 C 190.295 35.983,193.892 28.005,195.314 26.457 C 197.609 23.960,200.597 23.315,202.997 24.798 " stroke="none" fill="#c4e4f4" fill-rule="evenodd"></path></g></svg>