<svg xmlns="http://www.w3.org/2000/svg" x="0px" y="0px"
width="36" height="36"
viewBox="0 0 172 172"
style=" fill:#000000;"><g fill="none" fill-rule="nonzero" stroke="none" stroke-width="1" stroke-linecap="butt" stroke-linejoin="miter" stroke-miterlimit="10" stroke-dasharray="" stroke-dashoffset="0" font-family="none" font-weight="none" font-size="none" text-anchor="none" style="mix-blend-mode: normal"><path d="M0,172v-172h172v172z" fill="none"></path><g><path d="M157.66667,39.81083v92.37833c0,4.55083 -2.83083,8.6 -7.095,10.105l-31.605,14.835l2.86667,-38.87917v-64.5l-2.86667,-38.87917l31.605,14.835c4.26417,1.505 7.095,5.55417 7.095,10.105z" fill="#ce93d8"></path><path d="M15.824,121.17042l11.31975,6.9875c2.62658,1.57667 5.96267,1.30792 8.30617,-0.66292l86.38342,-70.38383v-37.92958c0,-4.29283 -5.3105,-6.2995 -8.15208,-3.08167l-81.43125,90.945z" fill="#8e24aa"></path><path d="M15.824,50.82958l11.31975,-6.9875c2.62658,-1.57667 5.96267,-1.30792 8.30617,0.66292l86.38342,70.38742v37.92958c0,4.29283 -5.3105,6.2995 -8.15208,3.08167l-81.43125,-90.94858z" fill="#ab47bc"></path><path d="M32.25,64.96583v42.06833l-11.46667,13.40167c-2.07833,2.72333 -6.45,1.25417 -6.45,-2.18583v-64.5c0,-3.44 4.37167,-4.90917 6.45,-2.18583z" fill="#6a1b9a"></path></g></g></svg>
